<svg height="512" viewBox="0 0 512 512" width="512" xmlns="http://www.w3.org/2000/svg" xmlns:xlink="http://www.w3.org/1999/xlink"><linearGradient id="a" gradientUnits="userSpaceOnUse" x1="55.514" x2="517.08" y1="456.851" y2="-4.715"><stop offset="0" stop-color="#003f8a"/><stop offset=".518" stop-color="#00d7df"/><stop offset="1" stop-color="#006df0"/></linearGradient><linearGradient id="b" x1="-46.309" x2="415.257" xlink:href="#a" y1="355.029" y2="-106.537"/><linearGradient id="c" x1="44.199" x2="505.765" xlink:href="#a" y1="445.537" y2="-16.029"/><linearGradient id="d" x1="44.199" x2="505.765" xlink:href="#a" y1="445.536" y2="-16.029"/><linearGradient id="e" x1="157.334" x2="618.9" xlink:href="#a" y1="558.671" y2="97.105"/><g><path d="m386.2 229.28a102.775 102.775 0 0 0 73.15-30.3 8 8 0 0 0 0-11.31l-61.85-61.85c.07-.06.14-.11.21-.18l11.59-11.6a23.834 23.834 0 1 0 -11.34-11.28l-11.57 11.57c-.06.06-.12.13-.18.2l-61.85-61.85a8 8 0 0 0 -11.31 0 103.6 103.6 0 0 0 -5.29 140.61l-6.25 6.25-22.63-22.63a8 8 0 0 0 -11.31 0l-67.88 67.88-11.31-11.31 45.25-45.26a8 8 0 0 0 0-11.31l-101.82-101.82a8 8 0 0 0 -11.32 0l-101.82 101.82a7.985 7.985 0 0 0 0 11.31l101.82 101.83a8.015 8.015 0 0 0 11.32 0l45.25-45.26 11.31 11.32-67.88 67.88a8 8 0 0 0 0 11.31l22.63 22.63-5.66 5.66-11.31-11.32a8.015 8.015 0 0 0 -11.32 0l-33.94 33.94a8.015 8.015 0 0 0 0 11.32l11.32 11.31-16.97 16.97a8 8 0 0 0 11.31 11.32l16.97-16.97 11.31 11.31a8.015 8.015 0 0 0 11.32 0l33.94-33.94a8.015 8.015 0 0 0 0-11.32l-11.31-11.31 5.65-5.66 22.63 22.63a8.015 8.015 0 0 0 11.32 0l67.88-67.88 11.31 11.31-45.25 45.26a7.985 7.985 0 0 0 0 11.31l101.82 101.82a7.979 7.979 0 0 0 11.31 0l101.83-101.82a8 8 0 0 0 0-11.31l-101.83-101.83a8 8 0 0 0 -11.31 0l-45.26 45.26-11.31-11.31 67.88-67.89a7.985 7.985 0 0 0 0-11.31l-22.62-22.63 6.27-6.27a102.709 102.709 0 0 0 67.1 24.7zm27.77-142.53a7.99 7.99 0 1 1 0 11.32v-.01h-.01a8.015 8.015 0 0 1 .01-11.31zm-293.48 327.75-22.63-22.63 22.63-22.63 22.63 22.63zm5.66-141.42-90.51-90.51 90.51-90.51 90.51 90.51zm203.65 22.62 90.51 90.51-90.51 90.51-90.51-90.51zm-11.32-56.56-135.76 135.76-22.62-22.62a.01.01 0 0 1 -.01-.01.01.01 0 0 1 -.01-.01l-22.62-22.61 135.77-135.77 22.62 22.62v.01c.01 0 .01 0 .01.01zm.48-169.23 123.17 123.16a87.458 87.458 0 0 1 -123.17-123.16z" fill="url(#a)"/><path d="m199.69 176.91-67.88-67.88a7.991 7.991 0 0 0 -11.32 0l-67.88 67.88a8 8 0 0 0 0 11.31l67.88 67.89a8.015 8.015 0 0 0 11.32 0l67.88-67.89a8 8 0 0 0 0-11.31zm-73.54-50.91 22.63 22.63-22.63 22.62-22.63-22.62zm-56.57 56.57 22.63-22.63 22.62 22.63-22.62 22.62zm56.57 56.57-22.63-22.63 22.63-22.63 22.63 22.63zm33.94-33.95-22.63-22.62 22.63-22.63 22.63 22.63z" fill="url(#b)"/><path d="m267.57 210.852-45.255 45.254a8 8 0 0 0 11.315 11.315l45.255-45.255a8 8 0 0 0 -11.315-11.314z" fill="url(#c)"/><path d="m205.345 273.076-5.657 5.657a8 8 0 0 0 11.312 11.315l5.657-5.657a8 8 0 0 0 -11.314-11.315z" fill="url(#d)"/><path d="m403.33 380.56-67.88-67.89a8 8 0 0 0 -11.31 0l-67.88 67.89a7.979 7.979 0 0 0 0 11.31l67.88 67.88a7.979 7.979 0 0 0 11.31 0l67.88-67.88a7.985 7.985 0 0 0 0-11.31zm-73.53-50.91 22.62 22.62-22.62 22.63-22.63-22.63zm-56.57 56.56 22.62-22.62 22.63 22.62-22.63 22.63zm56.57 56.57-22.63-22.62 22.63-22.63 22.62 22.63zm33.94-33.94-22.63-22.63 22.63-22.62 22.62 22.62z" fill="url(#e)"/></g></svg>
