<?xml version="1.0" encoding="iso-8859-1"?>
<!-- Generator: Adobe Illustrator 19.0.0, SVG Export Plug-In . SVG Version: 6.00 Build 0)  -->
<svg version="1.1" id="Capa_1" xmlns="http://www.w3.org/2000/svg" xmlns:xlink="http://www.w3.org/1999/xlink" x="0px" y="0px"
	 viewBox="0 0 512.001 512.001" style="enable-background:new 0 0 512.001 512.001;" xml:space="preserve">
<path style="fill:#1689FC;" d="M187.989,296.337l10.792,10.792c17.914,17.914,46.835,17.914,64.75,0l43.166-43.166
	c17.914-17.914,17.914-46.835,0-64.75l-10.792-10.792h-43.166l-64.75,64.75L187.989,296.337L187.989,296.337z"/>
<path style="fill:#136EF1;" d="M220.364,220.796l64.75,64.75l21.583-21.583c17.914-17.914,17.914-46.835,0-64.75l-10.792-10.792
	h-43.166L220.364,220.796z"/>
<path style="fill:#063E8B;" d="M277.378,185.365l46.212-46.212c5.965-5.965,5.965-15.619,0-21.583
	c-5.965-5.964-15.619-5.965-21.583,0l-46.212,46.212c-5.965,5.965-5.965,15.619,0,21.583
	C261.761,191.33,271.413,191.33,277.378,185.365z"/>
<path style="fill:#08469C;" d="M144.823,317.92l46.222-46.222c5.965-5.965,5.965-15.619,0-21.583
	c-5.965-5.965-15.619-5.965-21.583,0l-46.222,46.222c-5.965,5.965-5.965,15.619,0,21.583
	C129.205,323.885,138.858,323.885,144.823,317.92z"/>
<path style="fill:#B7E0F6;" d="M4.533,112.881l21.583,21.583c1.727,1.727,3.67,2.806,5.827,3.669l48.131,7.123l18.561,3.022
	l47.267-47.267l-1.078-20.504L137.7,32.375c-0.863-2.157-1.941-4.099-3.669-5.827L112.448,4.965c-6.044-6.044-15.539-6.044-21.583,0
	L4.533,91.297C-1.511,97.341-1.511,106.836,4.533,112.881z"/>
<path style="fill:#A4D9F5;" d="M47.7,48.131l75.541,75.541l22.662-22.662l-1.078-20.504l-7.124-48.13
	c-0.863-2.157-1.941-4.099-3.669-5.827L112.448,4.965c-6.044-6.044-15.539-6.044-21.583,0L47.7,48.131z"/>
<path style="fill:#1689FC;" d="M99.714,208.061l1.943,1.943h43.166l64.75-64.75v-43.166l-1.943-1.943
	c-13.596-13.596-22.014-11.222-38.85-14.677l-23.957-4.964l-64.75,64.75l4.749,23.311C88.492,185.615,86.118,194.465,99.714,208.061
	z"/>
<path style="fill:#136EF1;" d="M112.448,112.881l64.75,64.75l32.375-32.375V102.09l-1.943-1.943
	c-13.596-13.596-22.014-11.222-38.85-14.677l-23.957-4.964L112.448,112.881z"/>
<g>
	<path style="fill:#1DE8F1;" d="M383.749,510.225c27.628-12.949,52.447-30.432,74.03-52.015
		c22.231-22.231,39.929-47.7,52.879-76.188c3.453-7.771,0-16.836-7.553-20.073c-7.771-3.453-16.836,0-20.288,7.339
		c-11.44,25.253-27.195,47.914-46.62,67.339c-18.777,18.777-41.009,34.533-65.181,45.756c-7.769,3.454-11.007,12.734-7.339,20.288
		C366.913,510.225,375.98,513.68,383.749,510.225z"/>
	<path style="fill:#1DE8F1;" d="M356.555,455.406c21.583-9.93,41.224-23.526,58.059-40.362c17.05-17.05,30.647-36.692,40.361-58.49
		c3.669-7.554,0.216-16.62-7.553-20.073c-7.771-3.453-16.62-0.216-20.072,7.554c-8.417,18.345-20.073,35.181-34.318,49.425
		c-14.029,14.029-30.864,25.684-49.208,34.102c-7.554,3.669-10.792,12.518-7.339,20.288
		C339.72,455.405,348.999,458.643,356.555,455.406z"/>
</g>
<path style="fill:#17ACE8;" d="M328.28,350.295l21.583,21.583c6.044,6.044,15.539,6.044,21.583,0c6.044-6.044,6.044-15.539,0-21.583
	l-21.583-21.583c-6.044-6.044-15.539-6.044-21.583,0C322.236,334.756,322.236,344.251,328.28,350.295z"/>
<g>
	<path style="fill:#1BD9DE;" d="M436.196,436.628l21.583,21.583c22.231-22.231,39.929-47.7,52.879-76.188
		c3.453-7.771,0-16.836-7.553-20.073c-7.771-3.453-16.836,0-20.288,7.339C471.377,394.541,455.622,417.202,436.196,436.628z"/>
	<path style="fill:#1BD9DE;" d="M393.03,393.461l21.583,21.583c17.05-17.05,30.647-36.692,40.361-58.49
		c3.669-7.554,0.216-16.62-7.553-20.073c-7.771-3.453-16.62-0.216-20.072,7.554C418.93,362.381,407.274,379.217,393.03,393.461z"/>
</g>
<path style="fill:#1689FC;" d="M328.28,328.712l43.166,43.166c6.044-6.044,6.044-15.539,0-21.583l-21.583-21.583
	C343.819,322.668,334.325,322.668,328.28,328.712z"/>
<path style="fill:#1BD9DE;" d="M69.283,436.628l-64.75-64.75c-5.965-5.965-5.965-15.619,0-21.583l86.333-86.333
	c5.965-5.965,15.619-5.965,21.583,0l64.75,64.75c5.965,5.965,5.965,15.619,0,21.583l-86.333,86.333
	C84.9,442.592,75.247,442.592,69.283,436.628z"/>
<path style="fill:#1DE8F1;" d="M328.28,177.629l-64.75-64.75c-5.965-5.965-5.965-15.619,0-21.583l86.333-86.332
	c5.965-5.965,15.619-5.965,21.583,0l64.75,64.75c5.965,5.965,5.965,15.619,0,21.583l-86.333,86.333
	C343.899,183.595,334.245,183.595,328.28,177.629z"/>
<rect x="137.736" y="122.911" transform="matrix(0.7071 0.7071 -0.7071 0.7071 199.0903 -82.2099)" style="fill:#17ACE8;" width="122.092" height="152.614"/>
<rect x="164.713" y="134.082" transform="matrix(0.7071 0.7071 -0.7071 0.7071 187.9124 -109.1891)" style="fill:#1689FC;" width="122.092" height="76.307"/>
<path style="fill:#CAE8F9;" d="M263.531,415.045c6.044,6.044,15.539,6.044,21.583,0l129.499-129.499
	c6.044-6.044,6.044-15.539,0-21.583c-41.655-41.655-109.427-41.655-151.082,0S221.875,373.389,263.531,415.045z"/>
<path style="fill:#B7E0F6;" d="M263.531,263.962l86.333,86.333l64.75-64.75c6.044-6.044,6.044-15.539,0-21.583
	C372.958,222.307,305.186,222.307,263.531,263.962z"/>
<rect x="334.606" y="30.25" transform="matrix(0.7071 -0.7071 0.7071 0.7071 37.9179 274.1332)" style="fill:#1689FC;" width="30.523" height="122.092"/>
<rect x="75.608" y="289.252" transform="matrix(0.7071 -0.7071 0.7071 0.7071 -221.083 166.8539)" style="fill:#17ACE8;" width="30.523" height="122.092"/>
<g>
</g>
<g>
</g>
<g>
</g>
<g>
</g>
<g>
</g>
<g>
</g>
<g>
</g>
<g>
</g>
<g>
</g>
<g>
</g>
<g>
</g>
<g>
</g>
<g>
</g>
<g>
</g>
<g>
</g>
</svg>
